<?xml version="1.0" standalone="no"?>
<!DOCTYPE svg PUBLIC "-//W3C//DTD SVG 1.1//EN" "http://www.w3.org/Graphics/SVG/1.1/DTD/svg11.dtd" >
<svg xmlns="http://www.w3.org/2000/svg">
<metadata>Generated by IcoMoon</metadata>
<defs>
<font id="Sensorweb" horiz-adv-x="1024">
<font-face units-per-em="1024" ascent="960" descent="-64" />
<missing-glyph horiz-adv-x="1024" />
<glyph unicode="&#x20;" horiz-adv-x="512" d="" />
<glyph unicode="&#x41;" glyph-name="icon_arrow-down" d="M207.936 707.968l-107.936-107.936 412-412 412 412-107.936 107.936-304.064-304.064-304.064 304.064z" />
<glyph unicode="&#x42;" glyph-name="icon_arrow-left" d="M771.968 752.064l-107.936 107.936-412-412 412-412 107.936 107.936-304.064 304.064 304.064 304.064z" />
<glyph unicode="&#x43;" glyph-name="icon_arrow-right" d="M556.096 448l-304.064-304.064 107.936-107.936 412 412-412 412-107.936-107.936 304.064-304.064z" />
<glyph unicode="&#x44;" glyph-name="icon_arrow-up" d="M512 492.096l304.064-304.064 107.936 107.936-412 412-412-412 107.936-107.936 304.064 304.064z" />
<glyph unicode="&#x45;" glyph-name="icon_cancel" d="M824 703.296l-56.704 56.704-255.296-255.296-255.296 255.296-56.704-56.704 255.296-255.296-255.296-255.296 56.704-56.704 255.296 255.296 255.296-255.296 56.704 56.704-255.296 255.296z" />
<glyph unicode="&#x46;" glyph-name="icon_uncheck" d="M864 691.68l-108.32 108.32-243.68-243.68-243.68 243.68-108.32-108.32 243.68-243.68-243.68-243.68 108.32-108.32 243.68 243.68 243.68-243.68 108.32 108.32-243.68 243.68z" />
<glyph unicode="&#x47;" glyph-name="icon_check" d="M439.328 109.408l-353.344 353.312 121.536 136 220.384-220.384 342.56 408.256 139.52-117.024-470.656-560.192z" />
<glyph unicode="&#x48;" glyph-name="icon_provider" d="M578.016 448c0-36.448-29.568-66.016-66.016-66.016s-66.016 29.568-66.016 66.016c0 36.448 29.568 66.016 66.016 66.016s66.016-29.536 66.016-66.016zM360 96l152 362.016 152-362.016zM862.816 535.936c25.504-108.384-1.056-217.088-63.36-299.744l41.248-31.104c71.2 94.4 101.44 218.56 72.256 342.656-26.080 110.752-94.56 200.448-184.224 255.904l-27.168-43.936c78.496-48.576 138.496-127.040 161.28-223.776zM724.96 503.488c15.488-65.792-0.64-131.808-38.464-181.952l41.184-31.104c46.72 61.952 66.592 143.424 47.424 224.832-17.12 72.672-62.048 131.552-120.896 167.968l-27.168-43.872c47.648-29.504 84.096-77.12 97.92-135.872zM161.184 535.936c-25.504-108.384 1.056-217.088 63.36-299.744l-41.248-31.104c-71.2 94.4-101.44 218.56-72.224 342.656 26.080 110.752 94.56 200.448 184.224 255.904l27.2-43.936c-78.496-48.576-138.496-127.040-161.28-223.776zM299.040 503.488c-15.488-65.792 0.64-131.808 38.464-181.952l-41.184-31.104c-46.72 61.952-66.592 143.424-47.424 224.832 17.12 72.672 62.048 131.552 120.896 167.968l27.168-43.872c-47.648-29.504-84.096-77.12-97.92-135.872z" />
<glyph unicode="&#x49;" glyph-name="icon_timeline-01" d="M908.352 436.032l-345.152 330.88c-13.696 13.504-32.992 24.416-50.976 24.416s-35.232-10.976-48.928-24.48l-346.816-330.784c-27.392-27.008-20.192-46.048 18.56-46.048h95.84l-0.032-222.432c0-38.176 30.56-71.552 69.312-71.552h422.080c38.752 0 73.76 33.184 73.76 71.36v222.624h91.392c38.752 0 48.352 19.040 20.96 46.048zM736 167.36c0-6.016-7.264-11.36-13.76-11.36h-422.080c-6.432 0-10.176 4.096-10.176 10.272v280.416l-59.84-0.704h-19.264l293.184 277.664c2.976 2.944 6.24 4.448 8.16 4.448s5.184-1.632 8.16-4.544l293.6-277.568h-19.264l-58.72 0.704v-279.328zM714.016 313.952l-109.184-59.296-91.168 140.576-85.536-132.416-73.664 85.184-29.728-18.208-24.736 39.68 64 39.168 58.656-67.808 90.912 140.768 107.328-165.408 71.36 38.080z" />
<glyph unicode="&#x4a;" glyph-name="icon_category" d="M129.248 93.984l-29.248 44.16 130.080 86.24c46.688 31.008 119.872 31.008 166.56 0l61.408-40.672c28.8-19.104 79.168-19.104 107.968 0l61.376 40.672c46.784 31.008 119.872 30.976 166.56 0l130.048-86.24-29.248-44.16-130.048 86.24c-28.8 19.104-79.168 19.104-107.968 0l-61.376-40.704c-46.688-31.040-119.872-31.008-166.56 0l-61.472 40.704c-28.8 19.104-79.168 19.104-107.968 0l-130.112-86.24zM129.248 239.68l-29.248 44.16 130.080 86.24c46.688 31.008 119.872 31.008 166.56 0l61.408-40.672c28.8-19.104 79.168-19.104 107.968 0l61.376 40.672c46.784 31.008 119.872 30.976 166.56 0l130.048-86.24-29.248-44.16-130.048 86.24c-28.8 19.104-79.168 19.104-107.968 0l-61.376-40.672c-46.688-31.040-119.872-31.008-166.56 0l-61.472 40.672c-28.8 19.104-79.168 19.104-107.968 0l-130.112-86.24zM360.576 534.144c-8.608-26.944-37.504-41.92-64.448-33.28-27.040 8.544-41.92 37.408-33.376 64.448 8.64 26.944 76.96 72.448 76.96 72.448s29.504-76.576 20.864-103.616zM530.784 534.144c-8.544-26.944-37.408-41.92-64.448-33.28-26.944 8.544-41.92 37.408-33.28 64.448 8.64 26.944 76.864 72.448 76.864 72.448s29.504-76.576 20.864-103.616zM704.8 534.144c-8.608-26.944-37.504-41.92-64.544-33.28-26.944 8.544-41.92 37.408-33.28 64.448 8.64 26.944 76.96 72.448 76.96 72.448s29.408-76.576 20.864-103.616zM478.048 711.2c-8.608-26.944-37.504-41.92-64.448-33.28-27.040 8.544-41.888 37.408-33.376 64.448 8.64 26.944 76.96 72.448 76.96 72.448s29.408-76.576 20.864-103.616zM648.288 711.2c-8.544-26.944-37.408-41.92-64.448-33.28-26.944 8.544-41.92 37.408-33.28 64.448 8.64 26.944 76.864 72.448 76.864 72.448s29.504-76.576 20.864-103.616zM822.272 711.2c-8.608-26.944-37.504-41.92-64.544-33.28-26.944 8.544-41.888 37.408-33.28 64.448 8.64 26.944 76.96 72.448 76.96 72.448s29.408-76.576 20.864-103.616z" />
<glyph unicode="&#x4b;" glyph-name="icon_map" d="M766.016 844c-81.76 0-146.144-66.4-146.144-148.192 0-24 5.728-46.624 15.872-66.688 0 0 106.208-162.752 133.312-210.24 27.136 47.488 131.072 210.24 131.072 210.24 10.144 20.064 15.872 42.688 15.872 66.688 0 81.792-68.224 148.192-149.984 148.192zM766.016 616c-44.32 0-78.336 35.488-78.336 79.808s34.016 80.192 78.336 80.192c44.32 0 82.176-35.872 82.176-80.192s-37.856-79.808-82.176-79.808zM671.84 631.968l-271.936-113.952-215.904 98.016-84-396 250.016-98.016 273.856 78.080 228.16-104.064 74.016 410.016-254.176 125.952zM599.808 255.456l-219.2-67.264 48.928 277.216 223.84 93.472-53.568-303.392zM225.984 533.024l142.88-66.432-48.224-273.184-150.624 60.576 56 279.040zM811.040 181.6l-151.328 68.096 52.32 296.288 151.968-74.016-52.96-290.4z" />
<glyph unicode="&#x4c;" glyph-name="icon_phenomenon" d="M138.144 230.336l-30.144 43.52 127.84 88.544c48.064 33.28 123.36 33.28 171.424 0l57.216-39.616c29.6-20.512 81.504-20.512 111.136 0l57.216 39.616c48.032 33.28 123.36 33.312 171.392 0l127.808-88.544-30.144-43.488-127.808 88.544c-29.6 20.48-81.504 20.48-111.136 0l-57.216-39.616c-48.032-33.312-123.328-33.28-171.392 0l-57.216 39.616c-29.6 20.512-81.536 20.512-111.136 0l-127.84-88.544zM804.192 547.648c-48.032 33.312-123.328 33.28-171.392 0l-57.216-39.616c-29.6-20.48-81.504-20.512-111.136 0l-36.448 25.248v52.736h-80v40h80v92h-80v40h80v92h-172v-291.008c-7.104-3.232-13.856-6.976-20.16-11.328l-127.84-88.544 30.144-43.52 117.856 81.632v-95.040c54.016 20.416 120.128 14.4 166.944-18.016l5.056-3.488v73.344h-80v38.016h46.624l39.68-27.488c48.064-33.28 123.36-33.312 171.392 0l57.216 39.616c29.6 20.48 81.504 20.48 111.136 0l127.808-88.544 30.144 43.488-127.808 88.544zM428 228v24.416c-4 1.664-5.824 3.296-8.448 5.12l-57.376 39.616c-20.8 14.432-59.936 14.432-80.768 0l-25.44-17.792v-183.36h172v92h-80v40h80z" />
<glyph unicode="&#x4d;" glyph-name="icon_sensor" d="M267.936 272.992c48.576 0 87.936-39.36 87.936-87.936s-39.36-87.936-87.936-87.936c-48.576 0-87.936 39.36-87.936 87.936s39.36 87.936 87.936 87.936zM220 555.488v-75.424c192-6.24 344.864-154.048 362.56-340.064h75.68c-17.984 228-206.24 409.152-438.24 415.488zM808.416 140h75.584c-24.832 344-312 616.64-664 616.64v-75.36c310.016 0 563.744-239.264 588.416-541.28z" />
<glyph unicode="&#x4e;" glyph-name="icon_complete-data" d="M96 192h800v-64h-800v64zM96 824h64v-696h-64v696zM431.040 261.472l-124.416 330.656-154.016-346.816-56.608 26.4 217.024 488.96 124.416-330.656 150.976 320.416 128.736-263.968 126.144 206.848 52.704-33.792-184.864-303.232-120.064 246.112z" />
<glyph unicode="&#x4f;" glyph-name="icon_favorite" d="M512.032 832l109.856-232.512 245.568-36.512-178.432-180.16 42.784-254.816-219.776 119.552-219.84-119.552 41.504 254.816-177.152 180.16 245.568 36.512z" />
<glyph unicode="&#x50;" glyph-name="icon_favorite-all" d="M512.032 704.608l73.088-154.688 168.064-24.992-122.432-123.616 28.896-172.064-147.584 80.288-148.256-80.64 28.096 172.416-121.504 123.552 168.544 25.056 73.12 154.688zM512.032 832l-109.92-232.512-245.568-36.512 177.152-180.16-41.504-254.816 219.84 119.552 219.776-119.552-42.784 254.816 178.432 180.16-245.568 36.512-109.856 232.512z" />
<glyph unicode="&#x51;" glyph-name="icon_help" d="M516 860c-227.552 0-412-184.48-412-412s184.448-412 412-412 412 184.48 412 412-184.448 412-412 412zM542.016 224h-70.016v66.016h70.016v-66.016zM619.968 468.96c-8.48-10.016-27.712-27.872-57.696-53.632-10.368-8.864-16.96-15.776-20.032-20.768-4.256-6.56-6.208-15.584-6.208-27.104v-35.456h-58.016v40.64c0 16.128 3.008 29.408 8.992 39.808s17.408 23.104 34.336 38.048c19.968 17.696 32.864 30.016 38.656 36.928 11.904 15.008 17.856 30.752 17.856 47.264 0 21.92-8.64 38.464-25.952 49.6-14.592 9.632-33.472 14.432-56.896 14.432-16.928 0-36.96-3.296-60.96-9.824v51.904c26.016 4.64 50.208 6.912 73.664 6.912 40.768 0 73.184-7.488 97.408-22.496 29.6-18.080 44.384-46.336 44.384-84.768 0-24.64-9.856-48.448-29.472-71.552z" />
<glyph unicode="&#x52;" glyph-name="icon_settings" d="M451.008 856.672l-26.272-131.872c-28.128-8.8-54.464-22.688-77.536-38.208l-118.688 60.672c-29.632-27.84-56-59.040-75.776-95.424l85.728-103.968c-9.952-26.176-16.448-55.616-19.744-86.72l-118.688-53.792c3.296-41.6 13.184-83.36 26.368-121.632l131.808 3.552c14.816-25.952 32.992-48.64 54.4-69.28l-32.96-131.904c31.264-22.56 69.152-39.744 108.768-52.064l79.072 107.52c14.88-1.856 29.696-1.856 44.544-1.856 14.784 0 29.696 0 42.752 1.856l79.232-104.128c37.92 12.192 75.808 31.264 108.736 53.856l-31.36 126.72c21.408 20.64 39.584 43.36 54.464 69.28l130.144-3.552c14.816 38.24 24.672 78.304 28 121.632l-120.352 53.792c-1.664 31.104-8.16 60.544-18.048 86.72l85.728 103.968c-21.536 34.784-46.208 67.584-75.808 95.424l-118.688-60.672c-23.136 15.52-51.136 29.408-79.072 38.208l-24.768 130.080c-21.344 3.392-44.48 5.12-65.888 5.12-19.776 0-37.888-1.728-56.096-3.328zM344 438.56c0 93.76 75.776 168.768 168 168.768 92.256 0 168-75.040 168-168.768 0-92.288-75.744-167.232-168-167.232s-168 74.944-168 167.232z" />
<glyph unicode="&#x53;" glyph-name="icon_imprint" d="M570.24 689.696c-12.608 13.664-30.016 20.608-52.352 20.608-15.136 0-29.536-4.704-43.2-14.208-13.664-9.536-20.544-22.624-20.544-39.36 0.576-15.68 7.84-29.184 21.856-40.608 13.92-11.456 31.424-22.496 52.352-33.12 20.928-10.592 43.68-21.184 68.224-31.808 24.64-10.592 47.2-23.040 67.904-37.28 20.608-14.24 37.792-30.72 51.456-49.44 13.728-18.688 20.544-41.152 20.544-67.424 0-28.48-7.776-53.568-23.392-75.392-15.712-21.792-36.896-37.44-63.712-46.912 16.192-12.288 27.968-26.848 35.168-43.552 7.296-16.736 10.976-34.88 10.976-54.432 0-23.488-5.312-43.968-15.936-61.6-10.624-17.6-24.448-32.224-41.472-43.968-17.024-11.712-36.16-20.48-57.344-26.368-21.28-5.856-42.464-8.8-63.712-8.8-26.752 0-51.616 3.232-74.528 9.664s-42.88 16.192-59.872 29.28c-17.024 13.12-30.336 30.048-39.84 50.432-9.472 20.416-14.24 44.64-14.24 72.64h103.904c1.152-24 8.832-42.176 23.072-54.176s33.856-18.112 59.072-18.112c17.248 0 31.904 4.576 43.936 13.792 12.032 9.248 17.984 23.040 17.984 41.472 0.576 16.192-6.144 30.176-20.032 41.888-13.984 11.744-31.584 22.912-52.768 33.536-21.28 10.56-44.416 21.344-69.536 32.224-25.184 10.88-48.576 23.552-70.432 38.112-21.76 14.464-39.936 31.52-54.4 51.072-14.56 19.52-21.76 42.976-21.76 70.4 0 30.112 7.776 55.552 23.392 76.192s37.696 36.032 66.176 46.112c-11.712 12.832-20.608 25.664-26.752 38.528-6.208 12.832-9.248 28.128-9.248 46.048 0 23.488 5.152 44.256 15.456 62.4 10.4 18.112 23.808 33.376 40.256 45.664s35.168 21.472 56.128 27.648c20.928 6.144 42.048 9.216 63.232 9.216 24.544 0 47.616-3.488 69.12-10.464s40.16-17.472 56.128-31.424c15.936-13.952 28.48-31.040 37.696-50.848 9.152-19.84 13.824-43.296 13.824-69.28h-103.904c0 20-6.304 37.984-18.816 51.68zM446.24 511.84c-3.616 2.208-7.68 3.040-12.096 2.496-6.208-0.544-11.872-2.656-17.184-6.272-5.312-3.68-9.824-8.096-13.408-13.408-3.68-5.312-6.528-11.2-8.832-17.6-2.208-6.464-3.36-12.736-3.36-18.848 0-7.808 2.112-15.328 6.304-22.624s11.040-13.408 20.544-18.4l150.784-82.144c2.784-1.12 6.464-2.368 10.88-3.776 4.512-1.376 9.248-2.080 14.24-2.080 5.632 0 10.784 1.504 15.552 4.608 4.736 3.040 8.736 6.944 12.096 11.712s6.048 9.792 8.032 15.104c1.952 5.28 2.944 10.176 2.944 14.688 0 12.832-3.84 23.424-11.36 31.808-7.52 8.352-16.288 15.328-26.336 20.928l-138.24 77.888c-3.36 1.728-6.88 3.648-10.464 5.888z" />
<glyph unicode="&#x54;" glyph-name="icon_first-data" d="M288 800h64v-128h-64v128zM672 800h64v-128h-64v128zM453.92 128h-37.92v128h21.216c0.992 10.816 2.624 21.472 4.8 32h-26.016v96h65.152c7.136 11.136 15.072 21.824 23.776 32h-88.896v128h192v-51.008c10.4 4.608 21.088 8.576 32 11.904v39.104h192v-47.104c10.976-4.384 21.632-9.44 32-15.168v209.792c0 41.472-30.272 76.48-71.616 76.48h-24.384v-128h-128v128h-256v-128h-128v128h-25.6c-41.44 0-70.4-35.136-70.4-76.48v-561.952c0-41.472 29.056-65.568 70.4-65.568h257.056c-13.92 19.936-25.152 41.408-33.536 64zM384 128h-192v128h192v-128zM384 288h-192v96h192v-96zM384 416h-192v128h192v-128zM724.672 453.44c-124.096 0-224.736-100.608-224.736-224.736s100.608-224.736 224.736-224.736 224.736 100.608 224.736 224.736-100.608 224.736-224.736 224.736zM713.568 116.352l-112.352 74.912 35.104 52.736 72-48 107.104 146.016 48-38.368-149.824-187.264z" />
<glyph unicode="&#x55;" glyph-name="icon_last-data" d="M792.384 768h-24.384v-128h-128v128h-256v-128h-128v128h-25.6c-41.44 0-70.4-35.136-70.4-76.48v-561.952c0-41.472 29.056-65.568 70.4-65.568h561.952c41.504 0 71.616 24.224 71.616 65.568v561.984c0 41.472-30.272 76.48-71.616 76.48zM384 128h-192v128h192v-128zM384 288h-192v96h192v-96zM384 416h-192v128h192v-128zM608 128h-192v128h192v-128zM608 288h-192v96h192v-96zM608 416h-192v128h192v-128zM832 128h-192v128h192v-128zM832 288h-192v96h192v-96zM832 416h-192v128h192v-128zM288 800h64v-128h-64v128zM672 800h64v-128h-64v128z" />
<glyph unicode="&#x56;" glyph-name="icon_graph-view" d="M865.216 620.384l-215.328-253.248-114.848 115.808-107.616-108.544-74.048 149.312-154.624-103.968 36.832-55.744 92.032 61.888 81.632-164.64 125.824 126.944 118.624-119.616 261.984 308.224zM112.544 128h800v-64h-800v64zM112.544 832h64v-768h-64v768z" />
<glyph unicode="&#x57;" glyph-name="icon_table-view" d="M128 704h192v-64h-192v64zM416 704h192v-64h-192v64zM704 704h192v-64h-192v64zM128 544h192v-64h-192v64zM416 544h192v-64h-192v64zM704 544h192v-64h-192v64zM128 384h192v-64h-192v64zM416 384h192v-64h-192v64zM704 384h192v-64h-192v64zM128 224h192v-64h-192v64zM416 224h192v-64h-192v64zM704 224h192v-64h-192v64z" />
<glyph unicode="&#x58;" glyph-name="icon_hide-y-axis" d="M320.48 832h64v-768h-64v768zM192.512 128h608v-64h-608v64zM192.512 832h160v-64h-160v64zM192.512 608h160v-64h-160v64zM192.512 352h160v-64h-160v64zM594.496 501.952l206.016-209.536v412l-206.016-202.464z" />
<glyph unicode="&#x59;" glyph-name="icon_show-y-axis" d="M320.448 831.968h64v-768h-64v768zM192.448 127.968h608v-64h-608v64zM192.448 831.968h160v-64h-160v64zM192.448 607.968h160v-64h-160v64zM192.448 351.968h160v-64h-160v64zM608.448 704.416v-412l206.016 209.536-206.016 202.464z" />
<glyph unicode="&#x5a;" glyph-name="icon_visibility" d="M512 150.4c-231.584 0-427.008 182.784-427.008 297.6s195.424 297.6 427.008 297.6 427.008-182.784 427.008-297.6c0-114.816-195.424-297.6-427.008-297.6zM512 667.968c-194.432 0-349.376-157.984-349.376-219.968s154.912-219.968 349.376-219.968 349.376 157.984 349.376 219.968c0 61.984-154.912 219.968-349.376 219.968zM512 209.376c-131.584 0-238.624 107.040-238.624 238.624s107.040 238.624 238.624 238.624 238.624-107.040 238.624-238.624c0-131.584-107.040-238.624-238.624-238.624zM512 602.4c-85.12 0-154.4-69.28-154.4-154.4s69.28-154.4 154.4-154.4 154.4 69.28 154.4 154.4-69.28 154.4-154.4 154.4zM451.936 591.904c42.848 0 77.632-34.784 77.632-77.664s-34.784-77.632-77.632-77.632-77.632 34.784-77.632 77.632c0 42.88 34.752 77.664 77.632 77.664z" />
<glyph unicode="&#x5b;" glyph-name="icon_search" d="M562.432 706.432c114.688 0 208-93.312 208-208s-93.312-208-208-208-208 93.312-208 208 93.312 208 208 208zM562.432 770.432c-150.208 0-272-121.792-272-272s121.792-272 272-272 272 121.792 272 272-121.792 272-272 272v0zM314.016 295.296l45.248-45.248-124.448-124.448-45.248 45.248 124.448 124.448z" />
<glyph unicode="&#x5c;" glyph-name="icon_map-options" d="M778.976 514.944l145.024 66.944-412 190.144-412-190.144 145.024-66.944-145.024-66.944 145.024-66.944-145.024-66.944 412-190.144 411.968 190.144-144.992 66.944 145.024 66.944-145.024 66.944zM227.776 448l81.152 37.44 203.072-93.728 203.072 93.728 81.12-37.44-284.192-131.168-284.224 131.168zM512 450.72l-284.224 131.168 284.224 131.168 284.192-131.168-284.192-131.168zM796.224 314.112l-284.224-131.168-284.224 131.168 81.152 37.44 203.072-93.728 203.072 93.728 81.152-37.44z" />
<glyph unicode="&#x5d;" glyph-name="icon_plus" d="M224 480h576v-64h-576v64zM480 736h64v-576h-64v576z" />
<glyph unicode="&#x5e;" glyph-name="icon_minus" d="M224 480h576v-64h-576v64z" />
<glyph unicode="&#x5f;" glyph-name="icon_current-location" d="M816 477.984h-65.856c-13.472 107.904-98.528 193.536-206.144 207.872v64.128h-64v-64.128c-107.616-14.336-192.672-99.968-206.144-207.872h-65.856v-64h66.4c15.040-106.016 99.328-189.696 205.6-203.872v-68.128h64v68.128c106.272 14.176 190.56 97.856 205.6 203.872h66.4v64zM512 272c-97.056 0-176 78.944-176 176s78.944 176 176 176 176-78.944 176-176-78.944-176-176-176zM576 448c0-35.36-28.64-64-64-64s-64 28.64-64 64c0 35.36 28.64 64 64 64s64-28.64 64-64z" />
<glyph unicode="&#x60;" glyph-name="icon_marker-location" d="M512 860c-175.040 0-316.928-141.92-316.928-316.928s316.928-507.072 316.928-507.072 316.928 332.032 316.928 507.072c0 175.008-141.888 316.928-316.928 316.928zM512 448c-70.016 0-126.752 56.736-126.752 126.752s56.736 126.752 126.752 126.752c70.048 0 126.752-56.736 126.752-126.752s-56.704-126.752-126.752-126.752z" />
<glyph unicode="&#x61;" glyph-name="icon_share" d="M385.408 436.352c0.192 3.136 0.288 6.336 0.288 9.536 0 3.168-0.128 6.368-0.288 9.504l259.328 149.76c21.472-13.888 47.072-21.92 74.496-21.92 75.872 0 137.344 61.472 137.344 137.344 0 75.84-61.472 137.344-137.344 137.344s-137.344-61.504-137.344-137.344c0-5.216 0.288-10.272 0.832-15.328v0l-255.040-147.232c-22.368 15.872-49.76 25.216-79.328 25.216-75.872 0-137.344-61.504-137.344-137.344 0-75.872 61.472-137.344 137.344-137.344 29.536 0 56.928 9.312 79.328 25.216l255.040-147.296c-0.544-4.992-0.832-10.112-0.832-15.264 0-75.872 61.472-137.344 137.344-137.344s137.344 61.472 137.344 137.344c0 75.84-61.472 137.344-137.344 137.344-27.424 0-53.024-8.032-74.496-21.952l-259.328 149.76z" />
<glyph unicode="&#x62;" glyph-name="icon_qrcode" d="M416 736v-192h-192v192h192zM480 800h-320v-320h320v320zM800 736v-192h-192v192h192zM864 800h-320v-320h320v320zM416 352v-192h-192v192h192zM480 416h-320v-320h320v320zM288 672h64v-64h-64v64zM672 672h64v-64h-64v64zM288 288h64v-64h-64v64zM544 416h64v-64h-64v64zM544 320h224v-64h-224v64zM800 320h64v-64h-64v64zM800 160h64v-64h-64v64zM576 224h64v-64h-64v64zM544 224h64v-128h-64v128zM768 416h96v-64h-96v64zM704 320h64v-224h-64v224z" />
<glyph unicode="&#x63;" glyph-name="icon_mail" d="M160 704v-512h704v512h-704zM742.816 640l-230.816-191.008-230.784 191.008h461.6zM224 256v348.448l288-238.176 288 238.176v-348.448h-576z" />
<glyph unicode="&#x64;" glyph-name="icon_edit" d="M702.016 406.016v-180.512c0-41.344-33.696-75.488-75.008-75.488h-337.152c-41.344 0-75.84 34.144-75.84 75.488v337.152c0 41.344 34.496 75.36 75.84 75.36h186.944l71.712 74.016h-258.656c-82.624 0-149.856-66.752-149.856-149.344v-337.152c0-82.688 67.232-149.504 149.856-149.504h337.152c82.624 0 148.992 66.816 148.992 149.504v258.656l-74.016-78.144zM833.12 678.144l43.008 44.864-96.032 96.032-42.976-44.896zM692.864 727.872l-278.272-290.784c-28.096-28.832-87.296-181.248-87.296-181.248s152.128 56.192 189.568 92.48l271.904 283.584-95.936 95.936z" />
<glyph unicode="&#x65;" glyph-name="icon_new-tab" d="M303.52 224.096l106.464-94.336c14.144-12.544 37.632-12.96 49.504-1.12l192.32 192.32c6.048 6.048 9.312 14.112 9.216 22.784-0.064 9.504-4.064 18.464-11.232 25.408l-106.080 101.44-73.28 72.704c0 0 4.032 1.824 5.6 2.432 38.624 14.624 85.984 6.88 117.344-23.36l106.112-101.408c21.216-20.448 33.024-47.584 33.312-76.48 0.32-28.064-10.432-54.4-30.24-74.208l-192.32-192.32c-19.296-19.264-45.504-29.92-73.792-29.92-27.296 0-53.6 9.984-74.016 28.096l-106.528 94.336c-22.208 19.84-35.52 47.584-36.64 76.32-0.64 16.192 2.528 31.872 9.088 46.048l75.2-68.672zM721.024 655.904l-109.056 109.088c-8 8-18.304 12.32-29.088 12.32-10.272 0-19.68-4.032-26.528-11.424l-200.544-215.968c-5.92-6.368-8.992-14.944-8.64-24.096 0.448-10.752 5.312-20.96 13.792-28.736l109.184-101.248c0 0 65.504-60.672 75.936-71.168-14.816-7.616-31.424-11.584-48.8-11.584-28.288 0-55.328 10.752-76.096 30.272l-108.896 101.024c-22.464 20.672-35.584 48.608-36.8 78.56-1.152 28.352 8.704 55.296 27.712 75.808l200.576 216.032c40.864 43.904 115.552 44.384 158.912 0.928l109.056-109.056c32.256-32.288 40.992-79.552 25.888-119.36-13.92 13.92-76.64 68.64-76.64 68.64z" />
<glyph unicode="&#x66;" glyph-name="icon_copy" d="M866.272 688.032c3.328-4.672 6.976-10.976 10.656-16.608 11.328-17.984 20.96-41.6 25.632-66.912 4.992-26.976 0.672-60.576-8.32-80.224-2.656-5.312-5.312-12.608-8.64-17.984-0.672-1.312-12.288-20.288-17.312-25.28l-356.096-356.096c-17.632-12.288-35.264-7.968-45.568 2.336-8.64 8.64-13.344 23.296-6.336 38.912 1.024 2.336 3.328 5.344 4 6.016l351.744 351.744c1.024 1.664 2.336 4.32 4.352 6.304 2.976 3.68 5.984 9.984 8.64 13.984 9.632 15.648 8.96 48.256 2.336 66.24-7.008 17.664-22.976 44.896-36.288 58.208l-18.304 18.304c-3.296 2.656-7.648 5.664-10.304 8.32-27.648 22.944-85.504 54.912-130.112 24.96-3.008-2.304-9.312-6.656-10.336-7.68l-434.304-434.304c-1.344-2.656-4.032-7.328-4.672-10.656-3.296-30.624 15.296-57.92 31.296-73.888 17.664-17.664 51.616-38.272 81.536-26.272l377.728 377.728c11.648 13.632 5.984 16.64-1.344 23.968-5.312 5.312-12.96 12.32-20.608 13.312-1.024 0.32-3.008-0.352-3.68-1.024-2.656-1.344-8-5.344-8.96-6.304l-251.936-251.936c-17.632-12.288-35.264-7.968-45.568 2.336-8.64 8.64-13.344 23.296-6.336 38.912 1.024 2.336 3.328 5.344 4 6.016l257.248 257.248c50.624 40.608 93.536 19.616 123.808-10.656 21.632-21.632 40.288-51.584 19.648-92.864-0.992-2.304-2.656-5.952-4.672-8.64-2.656-4-8.32-12.288-9.312-13.312l-387.040-387.040c-60.256-42.944-136.128-5.664-171.392 29.6l-11.328 12c-4 4.64-7.328 9.984-10.976 14.976-11.008 15.616-20.672 34.624-26.304 56.928-6.304 23.616-4 61.888 7.008 78.208 2.976 4.32 8.32 12.992 8.96 13.664l444.608 444.608c7.328 5.984 15.968 11.968 24.32 16.96 11.968 7.328 29.248 12.64 44.928 15.616 18.624 4 45.92 1.984 63.552-2.304 34.944-8.32 65.216-25.28 89.536-44.928 4.32-3.68 13.312-10.656 14.336-11.648l26.944-26.944c4.672-4.672 16.992-20.96 19.296-23.968z" />
<glyph unicode="&#x67;" glyph-name="icon_timeline" d="M224 640h128v-512h-128v512zM384 480h128v-352h-128v352zM544 768h128v-640h-128v640zM704 448h128v-320h-128v320zM224 160h608v-32h-608v32z" />
<glyph unicode="&#x68;" glyph-name="icon_timeline-add" horiz-adv-x="1472" d="M721.28 324.224l-193.472 161.216v-97.44h-65.152c-128.96 0-225.696-225.216-225.696-225.216s96.736 97.216 225.696 97.216h65.152v-96.992l193.472 161.216zM1247.84 448v-288h-32v608h-128v-608h-32v320h-128v-320h-32v480h-128v-512h608v320z" />
<glyph unicode="&#x69;" glyph-name="icon_timeline-checked" horiz-adv-x="1472" d="M1245.984 448v-288h-32v608h-128v-608h-32v320h-128v-320h-32v480h-128v-512h608v320zM326.272 271.552l55.648 55.648 75.232-75.232 163.936 195.36 69.28-58.144-221.056-261.184-143.040 143.552z" />
<glyph unicode="&#x6a;" glyph-name="icon_timeline-show" horiz-adv-x="1472" d="M721.12 324.224l-193.472 161.216v-97.44h-64.992c-128.96 0-225.696-225.216-225.696-225.216s96.736 97.216 225.696 97.216h64.992v-96.992l193.472 161.216zM430.432 420c-73.184 0-136-72.192-176.64-135.072-50.272-26.88-81.312-57.248-81.312-57.248s96.736 226.336 225.696 226.336h65.472v95.936l30.016-32.256v-97.696h-63.232zM365.952 484c-73.184 0-136-71.936-176.64-134.816-50.272-26.88-81.312-57.376-81.312-57.376s96.736 226.208 225.696 226.208h63.968v96.416l34.016-32.256v-98.176h-65.728zM1247.648 448v-288h-32v608h-128v-608h-32v320h-128v-320h-32v480h-128v-512h608v320z" />
<glyph unicode="&#x6b;" glyph-name="icon_warning" d="M480 513h64v-144h-64v144zM480 321h64v-64h-64v64zM906.214 161.238l-372.428 573.524c-11.982 18.452-31.588 18.452-43.57 0l-372.43-573.524c-11.984-18.45-3.786-33.546 18.214-33.546h752c22 0 30.198 15.096 18.214 33.546zM770.128 191.692h-556.256l298.128 459.102 298.128-459.104h-40z" />
<glyph unicode="&#x6c;" glyph-name="icon_download" d="M483.908 148.364h-271.544v-112.364h599.272v112.364h-271.546l196.636 262.182h-149.818v449.454h-149.818v-449.454h-149.816z" />
</font>
</defs>
</svg>
